<svg width="131" height="133" viewBox="0 0 131 133" fill="none" xmlns="http://www.w3.org/2000/svg">
<g id="Github">
<path id="Ellipse 1" d="M120.829 64.9703C120.829 105.28 111.055 133 63.4032 133C26.5058 133 5.49072 105.28 5.49072 64.9703C5.49072 24.6606 26.4467 3 63.4032 3C100.36 3 120.829 24.6606 120.829 64.9703Z" fill="white"/>
<path id="Vector" d="M65.6035 0C29.691 0 0.603516 30.0723 0.603516 67.163C0.603516 96.8435 19.226 122.013 45.0473 130.884C48.2973 131.516 49.4889 129.44 49.4889 127.655C49.4889 126.059 49.4348 121.834 49.4077 116.237C31.3268 120.289 27.5135 107.226 27.5135 107.226C24.556 99.474 20.2823 97.4032 20.2823 97.4032C14.3943 93.2391 20.7373 93.323 20.7373 93.323C27.2643 93.7932 30.6931 100.241 30.6931 100.241C36.4889 110.511 45.9085 107.545 49.6243 105.827C50.2093 101.483 51.8831 98.5226 53.741 96.8435C39.3056 95.1644 24.1335 89.3884 24.1335 63.6538C24.1335 56.3218 26.6523 50.3331 30.8231 45.6317C30.0918 43.9358 27.8981 37.1076 31.3918 27.8559C31.3918 27.8559 36.8356 26.0537 49.2668 34.7401C54.4669 33.2457 59.9918 32.5069 65.5168 32.4733C71.0418 32.5069 76.5668 33.2457 81.7668 34.7401C94.1168 26.0537 99.5606 27.8559 99.5606 27.8559C103.054 37.1076 100.861 43.9358 100.211 45.6317C104.354 50.3331 106.873 56.3218 106.873 63.6538C106.873 89.4556 91.6793 95.1364 77.2169 96.7875C79.4918 98.8024 81.6043 102.922 81.6043 109.213C81.6043 118.201 81.5231 125.421 81.5231 127.604C81.5231 129.367 82.6606 131.466 85.9918 130.794C111.997 121.985 130.604 96.7987 130.604 67.163C130.604 30.0723 101.5 0 65.6035 0Z" fill="#4C837A"/>
</g>
</svg>
