<svg width="129" height="128" viewBox="0 0 129 128" fill="none" xmlns="http://www.w3.org/2000/svg">
<g id="Linkedin Icon">
<rect id="Rectangle 4" x="17.6035" y="17" width="98" height="100" fill="white"/>
<path id="Vector" d="M25.6758 0C11.888 0 0.603516 11.2842 0.603516 25.0723V102.876C0.603516 116.664 11.8877 127.944 25.6758 127.944H103.479C117.267 127.944 128.548 116.664 128.548 102.876V25.0723C128.548 11.2845 117.267 0 103.479 0H25.6758ZM31.9818 21.1133C38.5928 21.1133 42.6648 25.4533 42.7905 31.1581C42.7905 36.737 38.5925 41.199 31.8539 41.199H31.7299C25.2448 41.199 21.0532 36.7373 21.0532 31.1581C21.0532 25.4534 25.3716 21.1133 31.9817 21.1133H31.9818ZM88.9521 47.777C101.666 47.777 111.197 56.087 111.197 73.9448V107.282H91.8752V76.18C91.8752 68.3643 89.0788 63.0321 82.0863 63.0321C76.7482 63.0321 73.5663 66.6261 72.1693 70.0979C71.659 71.34 71.5336 73.0748 71.5336 74.8124V107.282H52.2116C52.2116 107.282 52.4651 54.5958 52.2116 49.1405H71.5375V57.374C74.1052 53.4124 78.6981 47.7769 88.9521 47.7769V47.777ZM22.1929 49.1447H41.5149V107.283H22.1929V49.1447Z" fill="#4C837A"/>
</g>
</svg>
